<svg width="1440" height="1024" viewBox="0 0 1440 1024" fill="none" xmlns="http://www.w3.org/2000/svg">
  <path d="M-122 267.5C-45.1667 225.5 108.5 151.5 182.5 195.5C275 251 329 315 409 291C489 267 525 203 632 195.5C739 188 827 267.5 932 267.5C1037 267.5 1089 195.5 1180 195.5C1271 195.5 1369 291 1488 291C1607 291 1607 195.5 1708 195.5" stroke="white" stroke-width="4" stroke-linecap="round"/>
  <path d="M-122 468.5C-45.1667 426.5 108.5 352.5 182.5 396.5C275 452 329 516 409 492C489 468 525 404 632 396.5C739 389 827 468.5 932 468.5C1037 468.5 1089 396.5 1180 396.5C1271 396.5 1369 492 1488 492C1607 492 1607 396.5 1708 396.5" stroke="white" stroke-width="4" stroke-linecap="round"/>
  <path d="M-122 677.5C-45.1667 635.5 108.5 561.5 182.5 605.5C275 661 329 725 409 701C489 677 525 613 632 605.5C739 598 827 677.5 932 677.5C1037 677.5 1089 605.5 1180 605.5C1271 605.5 1369 701 1488 701C1607 701 1607 605.5 1708 605.5" stroke="white" stroke-width="4" stroke-linecap="round"/>
  <path d="M-122 892.5C-45.1667 850.5 108.5 776.5 182.5 820.5C275 876 329 940 409 916C489 892 525 828 632 820.5C739 813 827 892.5 932 892.5C1037 892.5 1089 820.5 1180 820.5C1271 820.5 1369 916 1488 916C1607 916 1607 820.5 1708 820.5" stroke="white" stroke-width="4" stroke-linecap="round"/>
</svg>
